<svg width="24" height="24" viewBox="0 0 24 24" fill="none" xmlns="http://www.w3.org/2000/svg">
    <g clip-path="url(#clip0_1435_1559)">
        <path d="M9.36452 8.16673H2.17702C1.25227 8.16673 0.5 7.41446 0.5 6.48952V2.17702C0.5 1.25227 1.25227 0.5 2.17702 0.5H9.36452C10.2895 0.5 11.0417 1.25227 11.0417 2.17702V6.48952C11.0417 7.41446 10.2895 8.16673 9.36452 8.16673ZM2.17702 1.9375C2.04489 1.9375 1.9375 2.04489 1.9375 2.17702V6.48952C1.9375 6.62183 2.04489 6.72923 2.17702 6.72923H9.36452C9.49683 6.72923 9.60423 6.62183 9.60423 6.48952V2.17702C9.60423 2.04489 9.49683 1.9375 9.36452 1.9375H2.17702Z" fill="#6096FF"/>
        <path d="M9.36452 23.5027H2.17702C1.25227 23.5027 0.5 22.7504 0.5 21.8256V11.7631C0.5 10.8382 1.25227 10.0859 2.17702 10.0859H9.36452C10.2895 10.0859 11.0417 10.8382 11.0417 11.7631V21.8256C11.0417 22.7504 10.2895 23.5027 9.36452 23.5027ZM2.17702 11.5234C2.04489 11.5234 1.9375 11.6308 1.9375 11.7631V21.8256C1.9375 21.9578 2.04489 22.0652 2.17702 22.0652H9.36452C9.49683 22.0652 9.60423 21.9578 9.60423 21.8256V11.7631C9.60423 11.6308 9.49683 11.5234 9.36452 11.5234H2.17702Z" fill="#6096FF"/>
        <path d="M21.8237 23.5027H14.6362C13.7113 23.5027 12.959 22.7504 12.959 21.8256V17.5131C12.959 16.5882 13.7113 15.8359 14.6362 15.8359H21.8237C22.7484 15.8359 23.5007 16.5882 23.5007 17.5131V21.8256C23.5007 22.7504 22.7484 23.5027 21.8237 23.5027ZM14.6362 17.2734C14.5039 17.2734 14.3965 17.3808 14.3965 17.5131V21.8256C14.3965 21.9578 14.5039 22.0652 14.6362 22.0652H21.8237C21.9558 22.0652 22.0632 21.9578 22.0632 21.8256V17.5131C22.0632 17.3808 21.9558 17.2734 21.8237 17.2734H14.6362Z" fill="#6096FF"/>
        <path d="M21.8237 13.9167H14.6362C13.7113 13.9167 12.959 13.1645 12.959 12.2395V2.17702C12.959 1.25227 13.7113 0.5 14.6362 0.5H21.8237C22.7484 0.5 23.5007 1.25227 23.5007 2.17702V12.2395C23.5007 13.1645 22.7484 13.9167 21.8237 13.9167ZM14.6362 1.9375C14.5039 1.9375 14.3965 2.04489 14.3965 2.17702V12.2395C14.3965 12.3718 14.5039 12.4792 14.6362 12.4792H21.8237C21.9558 12.4792 22.0632 12.3718 22.0632 12.2395V2.17702C22.0632 2.04489 21.9558 1.9375 21.8237 1.9375H14.6362Z" fill="#6096FF"/>
    </g>
    <defs>
        <clipPath id="clip0_1435_1559">
            <rect width="23" height="23" fill="white" transform="translate(0.5 0.5)"/>
        </clipPath>
    </defs>
</svg>
