<svg width="25" height="24" viewBox="0 0 25 24" fill="none" xmlns="http://www.w3.org/2000/svg">
    <path d="M17.3053 1.08122C17.3698 0.873404 17.3519 0.647886 17.2557 0.453484C17.1594 0.259082 16.9925 0.111439 16.791 0.0425135C16.5895 -0.0264116 16.3697 -0.0110722 16.1792 0.0852111C15.9886 0.181494 15.8427 0.350975 15.7729 0.556964L14.9652 3.04441C14.9008 3.25223 14.9186 3.47775 15.0149 3.67215C15.1112 3.86655 15.2781 4.0142 15.4796 4.08312C15.681 4.15205 15.9008 4.13671 16.0914 4.04042C16.2819 3.94414 16.4279 3.77466 16.4977 3.56867L17.3053 1.08122ZM22.2246 1.06242C22.3759 1.21795 22.4608 1.42879 22.4608 1.64861C22.4608 1.86843 22.3759 2.07927 22.2246 2.2348L19.5324 4.99987C19.4584 5.08137 19.3693 5.14673 19.2702 5.19207C19.1711 5.23741 19.0642 5.26179 18.9557 5.26375C18.8473 5.26572 18.7395 5.24523 18.639 5.20351C18.5384 5.16179 18.447 5.09969 18.3703 5.02092C18.2937 4.94215 18.2332 4.84833 18.1926 4.74504C18.1519 4.64175 18.132 4.53111 18.1339 4.41973C18.1358 4.30835 18.1596 4.19851 18.2037 4.09676C18.2479 3.995 18.3115 3.90342 18.3909 3.82748L21.0831 1.06242C21.2346 0.907076 21.4398 0.819822 21.6539 0.819822C21.8679 0.819822 22.0732 0.907076 22.2246 1.06242ZM8.54364 3.38286C8.72034 3.00602 8.98387 2.67914 9.31139 2.43056C9.6389 2.18198 10.0205 2.01919 10.4231 1.95632C10.8257 1.89345 11.2372 1.93239 11.6219 2.06977C12.0065 2.20715 12.3527 2.43881 12.6305 2.74468L20.1753 11.0465C20.4477 11.3463 20.6464 11.7087 20.7547 12.1034C20.863 12.4981 20.8778 12.9137 20.7979 13.3155C20.7181 13.7173 20.5458 14.0936 20.2954 14.4131C20.0451 14.7326 19.724 14.986 19.359 15.1521L15.676 16.8288C16.1239 17.899 16.1427 19.1075 15.7285 20.1919C15.3142 21.2762 14.5002 22.1491 13.4632 22.6209C12.4261 23.0927 11.2498 23.1254 10.1894 22.7119C9.12909 22.2984 8.27031 21.4721 7.7995 20.4123L6.27353 21.1069C5.92453 21.2657 5.53764 21.3152 5.16138 21.2491C4.78512 21.183 4.43624 21.0042 4.15849 20.7353L2.60883 19.2344C2.30921 18.9443 2.1073 18.5638 2.03237 18.148C1.95744 17.7322 2.01337 17.3027 2.19206 16.9217L8.54364 3.38286ZM9.27809 19.7399C9.5821 20.3858 10.1186 20.885 10.7744 21.1322C11.4301 21.3794 12.1538 21.3552 12.7924 21.0646C13.4311 20.774 13.9348 20.2399 14.1972 19.575C14.4595 18.9101 14.46 18.1665 14.1985 17.5013L9.27701 19.7399H9.27809ZM11.4491 3.87725C11.3506 3.76883 11.2279 3.68671 11.0915 3.63799C10.9551 3.58927 10.8092 3.57542 10.6665 3.59765C10.5237 3.61987 10.3884 3.67749 10.2722 3.76552C10.156 3.85356 10.0624 3.96935 9.99962 4.10288L3.64804 17.6417C3.61806 17.7052 3.60859 17.7769 3.62098 17.8463C3.63337 17.9157 3.667 17.9793 3.71696 18.0277L5.26662 19.5275C5.31288 19.5723 5.37097 19.602 5.4336 19.613C5.49624 19.624 5.56065 19.6158 5.61877 19.5894L18.7042 13.6357C18.8338 13.5769 18.9478 13.4871 19.0367 13.3738C19.1257 13.2605 19.1869 13.127 19.2154 12.9844C19.2438 12.8418 19.2387 12.6944 19.2003 12.5543C19.162 12.4142 19.0916 12.2855 18.995 12.1791L11.4491 3.87725ZM19.2308 7.73064C19.2308 7.51064 19.3159 7.29965 19.4674 7.14408C19.6189 6.98852 19.8243 6.90112 20.0385 6.90112H22.1923C22.4065 6.90112 22.612 6.98852 22.7634 7.14408C22.9149 7.29965 23 7.51064 23 7.73064C23 7.95064 22.9149 8.16164 22.7634 8.3172C22.612 8.47277 22.4065 8.56016 22.1923 8.56016H20.0385C19.8243 8.56016 19.6189 8.47277 19.4674 8.3172C19.3159 8.16164 19.2308 7.95064 19.2308 7.73064Z" fill="#6096FF"/>
</svg>
