<svg width="25" height="24" viewBox="0 0 25 24" fill="none" xmlns="http://www.w3.org/2000/svg">
    <path d="M12.5 8V21M12.5 8C12.5 8 12.5 6.50722 12.5 6C12.5 4.89543 13.3954 4 14.5 4C15.6046 4 16.5 4.89543 16.5 6C16.5 7.10457 15.6046 8 14.5 8C13.9027 8 12.5 8 12.5 8ZM12.5 8C12.5 8 12.5 6.06291 12.5 5.5C12.5 4.11929 11.3807 3 10 3C8.61929 3 7.5 4.11929 7.5 5.5C7.5 6.88071 8.61929 8 10 8C10.8178 8 12.5 8 12.5 8ZM5.5 12H19.5M5.5 12C4.39543 12 3.5 11.1046 3.5 10C3.5 8.89543 4.39543 8 5.5 8H19.5C20.6046 8 21.5 8.89543 21.5 10C21.5 11.1046 20.6046 12 19.5 12M5.5 12L5.5 19C5.5 20.1046 6.39543 21 7.5 21H17.5C18.6046 21 19.5 20.1046 19.5 19V12" stroke="#6096FF" stroke-width="1.5" stroke-linecap="round" stroke-linejoin="round"/>
</svg>
