<svg width="25" height="20" viewBox="0 0 25 20" fill="none" xmlns="http://www.w3.org/2000/svg">
    <path d="M22.0937 4.97885C22.1087 5.19595 22.1087 5.41286 22.1087 5.63188C22.1087 12.3044 17.0289 20 7.74056 20V19.9962C4.99655 20 2.30942 19.214 0 17.7321C0.399008 17.7802 0.799938 17.8042 1.20183 17.8052C3.4761 17.807 5.68495 17.0442 7.47346 15.6394C6.41969 15.6195 5.39848 15.2708 4.55261 14.642C3.70675 14.0132 3.07851 13.1359 2.75575 12.1325C3.51281 12.2787 4.29274 12.2485 5.03576 12.0454C2.67979 11.5695 0.984924 9.49966 0.984924 7.09581V7.03177C1.68724 7.42303 2.47328 7.6398 3.27686 7.66384C1.05761 6.18088 0.374009 3.22899 1.71391 0.921284C2.98167 2.48129 4.56342 3.75717 6.3564 4.66605C8.14938 5.57493 10.1135 6.09649 12.1212 6.19684C11.9211 5.33513 11.9507 4.43598 12.2071 3.58931C12.4635 2.74264 12.9377 1.97812 13.5822 1.37221C15.6161 -0.539757 18.8149 -0.441687 20.7267 1.59123C21.8576 1.36793 22.9421 0.953293 23.9335 0.365173C23.5565 1.53445 22.7677 2.527 21.7137 3.15823C22.7147 3.0402 23.6923 2.77215 24.6135 2.3631C23.9358 3.37794 23.0825 4.26374 22.0937 4.97885Z" fill="#1D9BF0"/>
</svg>
